
		<svg xmlns="http://www.w3.org/2000/svg" xmlns:xlink="http://www.w3.org/1999/xlink" version="1.1" width="3078.740157480315" height="964.5669291338584">
			
			<g transform="scale(3.937007874015748) translate(10, 10)">
				<defs id="SvgjsDefs1045"></defs><g id="SvgjsG1046" featureKey="root" fill="#c14141"></g><g id="SvgjsG1047" featureKey="symbol1" fill="#f1ecec" transform="matrix(4.313550754932735,0,0,4.313550754932735,10.05960557825904,10)"><title>Ресурс 2</title><g data-name="Слой 2"><g data-name="Слой 1"><path d="M32.11,20a2.81,2.81,0,0,0-2.44-1.11,3.07,3.07,0,0,0-1.78.72q0,8.37-.05,16.73a4.89,4.89,0,0,1-.94,3.08,5,5,0,0,1-3.39,1.91l-17.7,0,.51.8c.33.52.77,1.21.82,1.28a12.16,12.16,0,0,0,5.88,4,13.45,13.45,0,0,0,2,.52l1.57,1.8,15.54-7.87L30.5,39.78a12.16,12.16,0,0,0,1.92-6.4c0-1.2-.21-.92-.32-2.57a78.37,78.37,0,0,1,.32-9.33A2.22,2.22,0,0,0,32.11,20Z"></path><path d="M3.71,15.46V5H24.59V32.17H8.67s0,0,0,.06a4.27,4.27,0,0,1-.89,2.37,4.05,4.05,0,0,1,.84,3.29,5.09,5.09,0,0,1-.23.83c-.06.15-.12.28-.17.37l15.08,0a2.7,2.7,0,0,0,1.64-.82,2.59,2.59,0,0,0,.58-1.62c.1-1.55.1-15.36,0-34.21A2.56,2.56,0,0,0,25,.89,2.62,2.62,0,0,0,23.1,0H5.18A2.5,2.5,0,0,0,3.4.78a2.48,2.48,0,0,0-.65,1.65V15.33a3.51,3.51,0,0,1,.61.05ZM14.14,37.39a1.69,1.69,0,1,1,1.69-1.69A1.69,1.69,0,0,1,14.14,37.39ZM12.06,2.77h4.18a.3.3,0,0,1,0,.6H12.06a.3.3,0,1,1,0-.6Z"></path><rect x="20.9" y="14.92" width="1.15" height="11.57"></rect><rect x="18.34" y="14.92" width="1.42" height="11.57"></rect><rect x="13.48" y="14.92" width="1.15" height="11.57"></rect><rect x="11.32" y="14.92" width="1.02" height="11.57"></rect><path d="M8.36,25.15a3.7,3.7,0,0,1,.32,1.33h1.49V14.92H8.36V20a4.2,4.2,0,0,1,0,3.25Z"></path><path d="M7.33,18.45q0-1.77,0-3.53h-1v2.38Z"></path><rect x="15.78" y="14.92" width="1.42" height="11.57"></rect><path d="M5.94,36l-1.37-1.6a1.85,1.85,0,0,0,.3-.21l.86-.74a1.87,1.87,0,0,0,.21-2.63l-1.4-1.64a1.85,1.85,0,0,0,.34-.23l.86-.74a1.87,1.87,0,0,0,.21-2.63L4.58,24a1.85,1.85,0,0,0,.3-.2L5.73,23a1.87,1.87,0,0,0,.21-2.63l-1.8-2.11a1.87,1.87,0,0,0-2.63-.21l-.86.74a1.87,1.87,0,0,0-.21,2.63L1.81,23a1.85,1.85,0,0,0-.3.2L.65,24A1.87,1.87,0,0,0,.44,26.6l1.4,1.64a1.85,1.85,0,0,0-.34.23l-.86.74a1.87,1.87,0,0,0-.21,2.63l1.37,1.6a1.85,1.85,0,0,0-.3.21l-.86.74A1.87,1.87,0,0,0,.44,37l1.8,2.11a1.87,1.87,0,0,0,2.63.21l.86-.74A1.87,1.87,0,0,0,5.94,36Z"></path></g></g></g><g id="SvgjsG1048" featureKey="text1" fill="#ffffff" transform="matrix(7.025761940081998,0,0,7.025761940081998,155.3629965165199,11.33255073961137)"><path d="M2.18 20 l-1.52 0 l3.68 -12.8 l2.48 0 l3.68 12.8 l-1.52 0 l-1.18 -4.08 l-4.76 1.12 z M5.58 8.22 l-2.06 7.18 l3.86 -0.9 z M18.28 10.28 c1.06 0.6 1.76 1.84 1.76 3.2 l0 2.94 c0 1.26 -0.38 2.24 -1.1 2.9 c-0.8 0.72 -1.78 0.86 -2.4 0.86 c-0.18 0 -0.32 0 -0.42 -0.02 c-0.88 -0.08 -1.76 -0.52 -2.5 -1.2 l0 4.62 l-1.48 0 c0 -0.02 0.02 -2.7 0.02 -11.7 c-0.52 -0.52 -0.7 -1.24 -0.7 -1.78 l1.48 0 c0 0.3 0.12 0.7 0.38 0.84 c0.3 0.16 0.84 0.02 1.48 -0.38 c1.64 -1.02 2.9 -0.62 3.48 -0.28 z M18.560000000000002 16.42 l0 -2.94 c0 -0.82 -0.4 -1.58 -0.98 -1.92 c-0.7 -0.38 -1.46 -0.06 -2 0.26 c-0.78 0.5 -1.44 0.66 -1.96 0.66 l0 3.36 c0 1.3 1.32 2.72 2.64 2.86 c0.26 0.02 1.1 0.06 1.68 -0.46 c0.42 -0.38 0.62 -0.98 0.62 -1.82 z M29.52 18.22 c0.5 0.52 0.68 1.24 0.68 1.78 l-1.46 0 c0 -0.3 -0.14 -0.7 -0.4 -0.84 c-0.3 -0.16 -0.84 -0.02 -1.48 0.38 c-0.8 0.5 -1.52 0.64 -2.06 0.64 c-0.26 0 -0.48 -0.02 -0.66 -0.06 c-0.78 -0.18 -1.44 -0.68 -1.9 -1.4 c-0.5 -0.76 -0.7 -1.72 -0.58 -2.64 c0.16 -1.02 0.7 -1.9 1.56 -2.46 c0.64 -0.42 1.4 -0.66 2.18 -0.68 c0.72 0 1.44 0.18 2.08 0.52 c0.2 0.1 0.38 0.24 0.56 0.36 l0 -0.16 c0 -0.98 -0.24 -1.64 -0.7 -1.98 c-0.42 -0.3 -1.06 -0.38 -1.94 -0.26 c-0.8 0.1 -1.62 0.38 -2.16 0.56 c-0.16 0.06 -0.28 0.1 -0.4 0.14 l-0.42 -1.42 c0.08 -0.02 0.2 -0.06 0.34 -0.12 c1.24 -0.4 3.8 -1.28 5.44 -0.1 c0.88 0.62 1.32 1.7 1.32 3.18 l0 4.56 z M26.08 18.28 c0.8 -0.48 1.44 -0.66 1.96 -0.66 l0 -0.9 c0 -0.8 -0.48 -1.54 -1.26 -1.96 c-0.9 -0.48 -1.92 -0.44 -2.76 0.1 c-1.1 0.7 -1.14 2.14 -0.54 3.08 c0.26 0.42 1.06 1.3 2.6 0.34 z M35.64 20.16 c-1.44 0 -3.28 -0.42 -3.9 -0.66 l0.54 -1.36 c0.56 0.22 2.88 0.72 3.98 0.5 c0.38 -0.06 0.7 -0.42 0.76 -0.86 c0.08 -0.56 -0.32 -1.12 -1.08 -1.48 c-0.46 -0.24 -1.28 -0.62 -1.96 -0.92 c-0.4 -0.18 -0.74 -0.32 -0.96 -0.42 c-0.54 -0.26 -0.98 -0.64 -1.28 -1.1 c-0.28 -0.46 -0.42 -0.96 -0.4 -1.48 c0 -0.48 0.16 -0.94 0.42 -1.34 c0.3 -0.42 0.7 -0.74 1.18 -0.92 c0.64 -0.26 1.58 -0.28 2.76 -0.04 c0.9 0.18 1.72 0.44 2.06 0.58 l-0.52 1.38 c-0.28 -0.12 -1.02 -0.36 -1.82 -0.52 c-1.24 -0.24 -1.76 -0.1 -1.94 -0.04 c-0.4 0.16 -0.66 0.52 -0.68 0.94 c0 0.5 0.3 0.94 0.86 1.2 c0.2 0.1 0.52 0.24 0.92 0.42 c0.68 0.3 1.54 0.68 2.02 0.94 c0.7 0.34 1.2 0.78 1.54 1.34 c0.3 0.52 0.42 1.1 0.34 1.68 c-0.08 0.5 -0.3 0.98 -0.64 1.36 c-0.36 0.38 -0.8 0.64 -1.3 0.74 c-0.26 0.04 -0.58 0.06 -0.9 0.06 z M48.26 7.199999999999999 l0 1.48 l-3.38 0 l0 11.32 l-1.46 0 l0 -11.32 l-3.38 0 l0 -1.48 l8.22 0 z M50.07999999999999 20 l0 -9.9 l1.48 0 l0 9.9 l-1.48 0 z M50.81999999999999 8.48 c-0.54 0 -0.98 -0.44 -0.98 -0.98 c0 -0.56 0.44 -1 0.98 -1 c0.56 0 1 0.44 1 1 c0 0.54 -0.44 0.98 -1 0.98 z M59.43999999999999 18.1 c0.14 -0.04 0.28 -0.1 0.38 -0.12 l0.44 1.4 c-0.08 0.02 -0.22 0.06 -0.36 0.12 c-0.76 0.26 -2.06 0.7 -3.32 0.7 c-0.76 0 -1.5 -0.16 -2.1 -0.6 c-0.88 -0.62 -1.32 -1.68 -1.32 -3.18 l0 -2.76 c0 -1.48 0.44 -2.54 1.32 -3.18 c1.64 -1.16 4.2 -0.3 5.42 0.12 c0.14 0.04 0.28 0.08 0.36 0.12 l-0.44 1.4 c-0.1 -0.04 -0.24 -0.08 -0.38 -0.12 c-0.54 -0.2 -1.36 -0.46 -2.18 -0.58 c-0.86 -0.12 -1.5 -0.04 -1.92 0.26 c-0.48 0.34 -0.7 1 -0.7 1.98 l0 2.76 c0 0.98 0.22 1.66 0.7 1.98 c0.42 0.3 1.06 0.4 1.92 0.28 c0.82 -0.12 1.64 -0.4 2.18 -0.58 z M65.99999999999999 13.379999999999999 c-0.24 0.1 -0.48 0.22 -0.7 0.32 l4.6 6.3 l-1.84 0 l-4.02 -5.5 l-0.02 0.02 c-0.42 0.38 -0.64 0.84 -0.7 1.42 l0 4.06 l-1.48 0 l0 -13.48 l1.48 0 l0 6.66 c0.62 -0.46 1.34 -0.82 2.06 -1.14 c1.12 -0.54 2.14 -1.02 2.68 -1.94 l1.62 0 c-0.22 0.64 -0.58 1.2 -1.08 1.7 c-0.76 0.7 -1.7 1.14 -2.6 1.58 z M78.53999999999999 13.68 l0 1.92 l-5.92 1.38 c0.08 0.66 0.28 1.12 0.64 1.4 c0.58 0.44 1.62 0.44 3.1 0.04 c0.36 -0.12 1.26 -0.4 1.54 -0.5 l0.48 1.4 c-0.26 0.08 -1.2 0.4 -1.62 0.5 c-0.84 0.24 -1.58 0.36 -2.24 0.36 c-0.88 0 -1.58 -0.2 -2.16 -0.64 c-0.78 -0.6 -1.2 -1.58 -1.24 -2.92 l0 -2.94 c0 -0.8 0.14 -1.48 0.42 -2.04 c0.26 -0.5 0.62 -0.9 1.1 -1.2 c0.84 -0.5 1.82 -0.5 2.18 -0.5 c0.38 0 1.34 0 2.2 0.5 c0.46 0.3 0.84 0.7 1.1 1.2 c0.28 0.56 0.42 1.24 0.42 2.04 z M77.05999999999999 14.42 l0 -0.74 c0 -1 -0.26 -1.64 -0.8 -1.98 c-0.5 -0.3 -1.16 -0.3 -1.44 -0.3 s-0.92 0 -1.42 0.3 c-0.54 0.34 -0.82 0.98 -0.82 1.98 l0 1.8 z M86.03999999999999 18.54 l0.32 1.44 c-0.58 0.12 -1.12 0.2 -1.6 0.2 c-2.22 0 -3.44 -1.42 -3.42 -3.78 l0 -4.96 l-1.54 0 l0 -1.46 l1.54 0 l0 -2.42 l1.46 0 l0 2.42 l2.68 0 l0 1.46 l-2.68 0 l0 4.96 c0 0.94 0.22 1.6 0.66 1.94 c0.5 0.4 1.38 0.46 2.58 0.2 z"></path></g>
			</g>
		</svg>
	